PathFileType	4	(X/Y/Z)	Patient4_TMGait_0pt4_02_right_21.trc.trc
DataRate	CameraRate	NumFrames	NumMarkers	Units	OrigDataRate	OrigDataStartFrame	OrigNumFrames
73.298429319372	73.298429319372	4	33	mm	73.298429319372	71	       141
Frame#	Time	Sacral			L.Shoulder			Chest			R.Shoulder			Neck			R.ASIS			L.ASIS			R.Thigh.Superior			R.Thigh.Lateral			R.Thigh.Inferior			R.Patella			L.Thigh.Superior			L.Thigh.Lateral			L.Thigh.Inferior			L.Patella			L.Shank.Superior			L.Shank.Lateral			L.Shank.Inferior			R.Shank.Superior			R.Shank.Lateral			R.Shank.Inferior			R.Heel			R.Midfoot.Superior			R.Midfoot.Lateral			R.Toe			L.Heel			L.Midfoot.Lateral			L.Midfoot.Superior			L.Toe			L.Elbow			L.Wrist			R.Elbow			R.Wrist			
		X1	Y1	Z1	X2	Y2	Z2	X3	Y3	Z3	X4	Y4	Z4	X5	Y5	Z5	X6	Y6	Z6	X7	Y7	Z7	X8	Y8	Z8	X9	Y9	Z9	X10	Y10	Z10	X11	Y11	Z11	X12	Y12	Z12	X13	Y13	Z13	X14	Y14	Z14	X15	Y15	Z15	X16	Y16	Z16	X17	Y17	Z17	X18	Y18	Z18	X19	Y19	Z19	X20	Y20	Z20	X21	Y21	Z21	X22	Y22	Z22	X23	Y23	Z23	X24	Y24	Z24	X25	Y25	Z25	X26	Y26	Z26	X27	Y27	Z27	X28	Y28	Z28	X29	Y29	Z29	X30	Y30	Z30	X31	Y31	Z31	X32	Y32	Z32	X33	Y33	Z33	

71	28.445000000000	881.387172523105	1001.062384256430	524.252550984911	1023.733349114149	1436.087114763978	335.291372786153	1152.053738701826	1366.148511264034	476.454728861770	1096.579665301850	1433.868730723517	662.675259062638	1030.617101549635	1493.052300339454	494.353724341743	1121.109338273046	937.113129093950	611.770624145759	1077.008190016680	964.425359480061	340.289042653797	1125.945618492423	727.491913003226	575.872403667551	1033.363147714081	625.966508062768	643.149486941918	1089.939358957988	567.226234582097	555.799415395491	1074.796826509314	481.208719048381	559.466655451255	1155.508732451460	779.037240665702	361.447246699773	1104.179001396984	648.195016055832	287.093186776950	1210.477207109741	590.451869928719	341.912580539495	1236.924720384367	528.187786773597	338.359009915610	1223.154193788915	456.423322900682	328.861548763104	1161.762573962492	324.759858131137	278.390929624802	1254.441955487041	229.116600507630	329.146620054870	1037.684060927969	394.515918559678	566.605668442627	959.997765674932	297.563685741366	633.494279033500	983.626750499152	201.383482993061	562.625853371730	832.757599417433	43.040871364256	538.531089041702	1006.865596591980	96.049898602649	562.921100587613	920.555890632601	36.955602946477	607.824678830729	1128.085206272402	42.683529975437	582.973884946735	1176.935811330653	52.803259234294	370.057388557192	1250.127071275749	53.369475611636	289.592860677625	1322.246134085284	129.936968439980	307.654331261374	1454.676942017208	97.430868172947	281.537852483868	880.820727943252	1111.277316350331	251.101793486753	846.627921543099	851.613941111494	264.947768925915	1256.538499791044	1131.720510178848	768.668938835177	1471.990570845084	1212.387659286710	666.888631654513	
72	28.458642857143	882.508544563459	999.699837896891	522.180812978229	1022.868385150003	1434.890797743461	333.148725902244	1151.454495446941	1365.721487764577	474.431932020470	1095.463553414272	1433.176404626143	660.635049371885	1029.572608528081	1492.092768047445	492.089424202804	1122.220964598745	936.518652173718	610.505730369762	1078.757285239033	963.037923910446	338.903481521264	1126.211033055683	726.401450677228	575.311693396284	1032.430145760085	625.392228318385	642.273001939280	1088.895951467366	566.025252323215	555.347097104830	1072.883480486841	479.917343912926	558.877958613980	1157.385917969207	776.944066851935	361.000131303806	1104.789366387665	645.651987131087	288.150785768575	1210.575446891752	587.728888956271	343.306876728499	1235.762796187608	523.920406693366	340.398732995397	1220.377467801150	451.512510877735	331.294784752336	1155.080124243852	321.331642737930	281.625156841119	1244.678532312217	223.228577660782	333.165748387349	1035.046704367622	393.620235975278	566.087446177454	956.468933688456	297.464927800877	633.108521473746	979.121622122872	200.962109336390	562.407418686686	827.294314933840	43.138848850436	538.591453893182	1001.355873325147	95.921343681309	562.815915419977	915.082781924507	36.922431267357	607.851135065740	1122.584753256509	42.516584059852	583.016921782847	1161.570408822667	49.839827731069	374.603308214217	1234.375986717491	48.817299228445	293.712910429099	1309.186306168580	122.521096582798	312.313790185644	1440.525707737194	85.743762839123	285.106644906855	881.661254666994	1109.316930009337	248.872826210778	850.635501733160	849.186867977440	262.416459143031	1255.584027172484	1130.823781390024	766.583285814667	1469.487892792503	1213.435409847991	663.278195252519	
73	28.472285714286	883.710075740815	998.358546013193	519.899792319580	1022.186765333083	1433.692982845623	330.812383766593	1150.946956995486	1365.325208000843	472.311246833134	1094.285427726648	1432.498462288722	658.471309286706	1028.574224827361	1491.166535623916	489.622468166092	1123.442881012171	935.918236850227	609.155030369908	1080.689079425501	961.662993467699	337.459528077437	1126.696306037558	725.297446445036	574.740728191046	1031.651235302816	624.829767532271	641.273645161504	1088.085490214682	564.821487368981	554.822244937542	1071.187907909741	478.583116449444	558.183256195338	1159.195869904155	774.499185692374	360.565624691384	1105.047944035885	643.078454063005	289.106642668920	1210.211591449238	584.786829990123	344.799452821335	1233.987148656067	519.529827671991	342.564998553645	1217.125816628280	446.626519481625	333.629263343029	1148.197519353309	317.914883335335	284.595578612864	1234.818249293994	217.544807653337	336.987040004298	1032.573006952920	392.723438525138	565.479197788095	953.050050633474	297.430515869318	632.640410098696	974.697466775646	200.576429409475	562.159874319934	821.851301124924	43.335556257708	538.665909758113	995.878993121119	95.811053429007	562.712727483882	909.632554378980	36.925973493535	607.874719632528	1117.091331625266	42.308888735193	583.068644171133	1146.399006395818	46.927425649823	378.556263562083	1218.980966305863	44.711909721795	297.379547077385	1296.176905420645	115.615658500482	316.881461470643	1426.558388347633	74.997960503254	288.797326330935	883.183606974697	1107.116165514235	246.243157591053	855.945151080636	846.479306225405	259.280798297935	1254.049155154006	1129.598411550403	764.597555268390	1466.991011646642	1213.056721403785	660.051597641387	
74	28.485928571429	884.944667775449	997.121571914283	517.464271454288	1021.724698570633	1432.550685162117	328.298844672252	1150.560237982081	1364.988788352972	470.104592502193	1093.105175371901	1431.903153958876	656.186820062255	1027.673433308208	1490.334883248677	486.957592678022	1124.729733847748	935.338281361749	607.701012584428	1082.697818458771	960.393476183673	335.954982041920	1127.345559570666	724.222099031571	574.074706138610	1031.030522271139	624.306746286805	640.113710895984	1087.493193893607	563.658825583052	554.162565878259	1069.727228744027	477.231960884955	557.341217543522	1160.857218552833	771.855858714328	360.107379834492	1104.948321327916	640.633783884884	289.873801833466	1209.420679768010	581.829202756497	346.275953453840	1231.693230574066	515.291338469042	344.712414499538	1213.580476110504	442.055271150523	335.723243172656	1141.502771949023	314.717224732604	287.124468782157	1225.369472933368	212.399467090653	340.430588777442	1030.267639770683	391.855818300233	564.750897776061	949.753051374533	297.495562443543	632.071140859697	970.371174463520	200.258220513752	561.871840464112	816.433758522338	43.680179269128	538.755137367495	990.458609322690	95.742078141687	562.627784560646	904.210250023368	36.991000844466	607.893018837431	1111.613220769144	42.052363941892	583.129311074576	1132.175810513724	44.256275036325	381.784542355368	1204.692171270495	41.284127268249	300.455056991704	1283.845840544546	109.619080147186	321.128720939972	1413.456861585120	65.792356341516	292.400080397625	885.437997091865	1104.737116393100	243.228787724453	862.514572853465	843.591191173031	255.567085085768	1251.925614308800	1128.088948990712	762.678115313264	1464.534110428639	1211.227495619621	657.190787666818	
